<mxfile host="65bd71144e">
    <diagram id="XyXfvU9HUduv9AaXpqOn" name="Page-1">
        <mxGraphModel dx="649" dy="754" grid="1" gridSize="10" guides="1" tooltips="1" connect="1" arrows="1" fold="1" page="1" pageScale="1" pageWidth="1169" pageHeight="827" math="0" shadow="0">
            <root>
                <mxCell id="0"/>
                <mxCell id="1" parent="0"/>
                <mxCell id="2" value="User" style="rounded=0;whiteSpace=wrap;html=1;fillColor=#99CCFF;" vertex="1" parent="1">
                    <mxGeometry x="255" y="40" width="50" height="30" as="geometry"/>
                </mxCell>
                <mxCell id="3" value="Area" style="rounded=0;whiteSpace=wrap;html=1;direction=east;fillColor=#99CCFF;" vertex="1" parent="1">
                    <mxGeometry x="59.5" y="160" width="100" height="50" as="geometry"/>
                </mxCell>
                <mxCell id="4" value="Reservation" style="rounded=0;whiteSpace=wrap;html=1;fillColor=#99CCFF;" vertex="1" parent="1">
                    <mxGeometry x="330" y="175" width="90" height="40" as="geometry"/>
                </mxCell>
                <mxCell id="5" value="Area Type" style="rounded=0;whiteSpace=wrap;html=1;fillColor=#99CCFF;" vertex="1" parent="1">
                    <mxGeometry x="69.5" y="320" width="80" height="40" as="geometry"/>
                </mxCell>
                <mxCell id="6" value="Administrates" style="rhombus;whiteSpace=wrap;html=1;fillColor=#FF99FF;" vertex="1" parent="1">
                    <mxGeometry x="40.5" y="30" width="99" height="50" as="geometry"/>
                </mxCell>
                <mxCell id="7" value="Places" style="rhombus;whiteSpace=wrap;html=1;fillColor=#FF99FF;" vertex="1" parent="1">
                    <mxGeometry x="334" y="70" width="80" height="50" as="geometry"/>
                </mxCell>
                <mxCell id="8" value="Is within" style="rhombus;whiteSpace=wrap;html=1;fillColor=#FF99FF;" vertex="1" parent="1">
                    <mxGeometry x="170" y="90" width="80" height="50" as="geometry"/>
                </mxCell>
                <mxCell id="9" value="Is a" style="rhombus;whiteSpace=wrap;html=1;fillColor=#FF99FF;" vertex="1" parent="1">
                    <mxGeometry x="69.5" y="240" width="80" height="50" as="geometry"/>
                </mxCell>
                <mxCell id="10" value="&lt;div&gt;Can exist&amp;nbsp;&lt;span style=&quot;color: rgba(0, 0, 0, 0); font-family: monospace; font-size: 0px; text-align: start; text-wrap: nowrap; background-color: transparent;&quot;&gt;%3CmxGraphModel%3E%3Croot%3E%3CmxCell%20id%3D%220%22%2F%3E%3CmxCell%20id%3D%221%22%20parent%3D%220%22%2F%3E%3CmxCell%20id%3D%222%22%20value%3D%22Places%22%20style%3D%22rhombus%3BwhiteSpace%3Dwrap%3Bhtml%3D1%3B%22%20vertex%3D%221%22%20parent%3D%221%22%3E%3CmxGeometry%20x%3D%2270%22%20y%3D%22230%22%20width%3D%2280%22%20height%3D%2250%22%20as%3D%22geometry%22%2F%3E%3C%2FmxCell%3E%3C%2Froot%3E%3C%2FmxGraphModel%3E&lt;/span&gt;&lt;span style=&quot;background-color: transparent; color: light-dark(rgb(0, 0, 0), rgb(255, 255, 255));&quot;&gt;in&lt;/span&gt;&lt;/div&gt;" style="rhombus;whiteSpace=wrap;html=1;fillColor=#FF99FF;" vertex="1" parent="1">
                    <mxGeometry x="170" y="380" width="80" height="50" as="geometry"/>
                </mxCell>
                <mxCell id="11" value="Is for an" style="rhombus;whiteSpace=wrap;html=1;fillColor=#FF99FF;" vertex="1" parent="1">
                    <mxGeometry x="220" y="170" width="80" height="50" as="geometry"/>
                </mxCell>
                <mxCell id="12" value="" style="fontSize=12;html=1;endArrow=ERzeroToMany;endFill=1;rounded=0;entryX=0.25;entryY=0;entryDx=0;entryDy=0;exitX=0.5;exitY=1;exitDx=0;exitDy=0;" edge="1" parent="1" source="6" target="3">
                    <mxGeometry width="100" height="100" relative="1" as="geometry">
                        <mxPoint x="360" y="320" as="sourcePoint"/>
                        <mxPoint x="460" y="220" as="targetPoint"/>
                    </mxGeometry>
                </mxCell>
                <mxCell id="13" value="" style="edgeStyle=entityRelationEdgeStyle;fontSize=12;html=1;endArrow=ERone;endFill=1;rounded=0;exitX=1;exitY=0.5;exitDx=0;exitDy=0;entryX=0;entryY=0.5;entryDx=0;entryDy=0;" edge="1" parent="1" source="6" target="2">
                    <mxGeometry width="100" height="100" relative="1" as="geometry">
                        <mxPoint x="360" y="320" as="sourcePoint"/>
                        <mxPoint x="460" y="220" as="targetPoint"/>
                    </mxGeometry>
                </mxCell>
                <mxCell id="14" value="" style="edgeStyle=orthogonalEdgeStyle;fontSize=12;html=1;endArrow=ERzeroToMany;endFill=1;rounded=0;entryX=0.75;entryY=0;entryDx=0;entryDy=0;exitX=0;exitY=0.5;exitDx=0;exitDy=0;curved=1;" edge="1" parent="1" source="8" target="3">
                    <mxGeometry width="100" height="100" relative="1" as="geometry">
                        <mxPoint x="180" y="200" as="sourcePoint"/>
                        <mxPoint x="180" y="260" as="targetPoint"/>
                    </mxGeometry>
                </mxCell>
                <mxCell id="15" value="" style="edgeStyle=orthogonalEdgeStyle;fontSize=12;html=1;endArrow=ERzeroToMany;endFill=1;rounded=0;exitX=0.5;exitY=1;exitDx=0;exitDy=0;entryX=1;entryY=0.25;entryDx=0;entryDy=0;curved=1;" edge="1" parent="1" source="8" target="3">
                    <mxGeometry width="100" height="100" relative="1" as="geometry">
                        <mxPoint x="305" y="240" as="sourcePoint"/>
                        <mxPoint x="235" y="250" as="targetPoint"/>
                    </mxGeometry>
                </mxCell>
                <mxCell id="16" value="" style="edgeStyle=orthogonalEdgeStyle;fontSize=12;html=1;endArrow=ERone;endFill=1;rounded=0;exitX=0.5;exitY=0;exitDx=0;exitDy=0;entryX=0.5;entryY=1;entryDx=0;entryDy=0;curved=1;" edge="1" parent="1" source="9" target="3">
                    <mxGeometry width="100" height="100" relative="1" as="geometry">
                        <mxPoint x="170" y="95" as="sourcePoint"/>
                        <mxPoint x="250" y="85" as="targetPoint"/>
                    </mxGeometry>
                </mxCell>
                <mxCell id="17" value="" style="edgeStyle=orthogonalEdgeStyle;fontSize=12;html=1;endArrow=ERone;endFill=1;rounded=0;entryX=0.5;entryY=0;entryDx=0;entryDy=0;curved=1;exitX=0.5;exitY=1;exitDx=0;exitDy=0;" edge="1" parent="1" source="9" target="5">
                    <mxGeometry width="100" height="100" relative="1" as="geometry">
                        <mxPoint x="110" y="300" as="sourcePoint"/>
                        <mxPoint x="120" y="210" as="targetPoint"/>
                    </mxGeometry>
                </mxCell>
                <mxCell id="18" value="" style="edgeStyle=orthogonalEdgeStyle;fontSize=12;html=1;endArrow=ERzeroToMany;endFill=1;rounded=0;entryX=0.5;entryY=1;entryDx=0;entryDy=0;exitX=0;exitY=0.5;exitDx=0;exitDy=0;curved=1;" edge="1" parent="1" source="10" target="5">
                    <mxGeometry width="100" height="100" relative="1" as="geometry">
                        <mxPoint x="144" y="409.95000000000005" as="sourcePoint"/>
                        <mxPoint x="76" y="376.6" as="targetPoint"/>
                    </mxGeometry>
                </mxCell>
                <mxCell id="19" value="" style="edgeStyle=orthogonalEdgeStyle;fontSize=12;html=1;endArrow=ERzeroToMany;endFill=1;rounded=0;entryX=1;entryY=0.5;entryDx=0;entryDy=0;exitX=0.5;exitY=0;exitDx=0;exitDy=0;curved=1;" edge="1" parent="1" source="10" target="5">
                    <mxGeometry width="100" height="100" relative="1" as="geometry">
                        <mxPoint x="242" y="260" as="sourcePoint"/>
                        <mxPoint x="230" y="320" as="targetPoint"/>
                    </mxGeometry>
                </mxCell>
                <mxCell id="20" value="" style="edgeStyle=orthogonalEdgeStyle;fontSize=12;html=1;endArrow=ERone;endFill=1;rounded=0;exitX=1;exitY=0.5;exitDx=0;exitDy=0;curved=1;entryX=0;entryY=0.5;entryDx=0;entryDy=0;" edge="1" parent="1" source="11" target="4">
                    <mxGeometry width="100" height="100" relative="1" as="geometry">
                        <mxPoint x="220" y="289.5" as="sourcePoint"/>
                        <mxPoint x="260" y="259.5" as="targetPoint"/>
                    </mxGeometry>
                </mxCell>
                <mxCell id="21" value="" style="fontSize=12;html=1;endArrow=ERzeroToMany;endFill=1;rounded=0;entryX=1;entryY=0.75;entryDx=0;entryDy=0;exitX=0;exitY=0.5;exitDx=0;exitDy=0;" edge="1" parent="1" source="11" target="3">
                    <mxGeometry width="100" height="100" relative="1" as="geometry">
                        <mxPoint x="240" y="250" as="sourcePoint"/>
                        <mxPoint x="175" y="274" as="targetPoint"/>
                    </mxGeometry>
                </mxCell>
                <mxCell id="22" value="" style="fontSize=12;html=1;endArrow=ERone;endFill=1;rounded=0;entryX=1;entryY=0.5;entryDx=0;entryDy=0;exitX=0.5;exitY=0;exitDx=0;exitDy=0;edgeStyle=orthogonalEdgeStyle;curved=1;" edge="1" parent="1" source="7" target="2">
                    <mxGeometry width="100" height="100" relative="1" as="geometry">
                        <mxPoint x="469" y="62.5" as="sourcePoint"/>
                        <mxPoint x="359" y="35" as="targetPoint"/>
                    </mxGeometry>
                </mxCell>
                <mxCell id="23" value="" style="fontSize=12;html=1;endArrow=ERone;endFill=1;rounded=0;exitX=0.5;exitY=1;exitDx=0;exitDy=0;entryX=0.5;entryY=0;entryDx=0;entryDy=0;edgeStyle=orthogonalEdgeStyle;elbow=vertical;curved=1;" edge="1" parent="1" source="7" target="4">
                    <mxGeometry width="100" height="100" relative="1" as="geometry">
                        <mxPoint x="340" y="220" as="sourcePoint"/>
                        <mxPoint x="420" y="220" as="targetPoint"/>
                    </mxGeometry>
                </mxCell>
            </root>
        </mxGraphModel>
    </diagram>
</mxfile>